<svg width="62" height="93" viewBox="0 0 62 93" fill="none" xmlns="http://www.w3.org/2000/svg">
<path d="M21.8258 9.13165V80.0692C21.8258 83.4442 22.5133 85.9025 23.8883 87.4442C25.2633 88.9858 27.8675 90.1108 31.7008 90.8192L31.1383 92.3192C26.3883 91.6525 22.6383 91.3192 19.8883 91.3192C17.43 91.3192 14.5758 91.6525 11.3258 92.3192L10.9508 91.6942C11.7841 90.4858 12.2008 88.2775 12.2008 85.0692V19.3817C12.2008 13.465 11.5133 9.58999 10.1383 7.75665C8.80496 5.88165 5.8258 4.94415 1.2008 4.94415L0.950798 3.13165C12.5341 1.42332 21.8466 0.569153 28.8883 0.569153C33.7216 0.569153 37.9925 0.923319 41.7008 1.63165C45.4508 2.33999 48.8258 3.52749 51.8258 5.19415C54.8258 6.81915 57.1175 9.08999 58.7008 12.0067C60.3258 14.9233 61.1383 18.4442 61.1383 22.5692C61.1383 27.1108 59.6591 31.2567 56.7008 35.0067C53.7841 38.715 50.1383 41.5483 45.7633 43.5067C41.43 45.4233 36.9925 46.3817 32.4508 46.3817C30.6591 46.3817 29.3258 46.2983 28.4508 46.1317V43.9442C31.6175 43.9442 34.5341 43.5275 37.2008 42.6942C39.9091 41.8608 42.305 40.6108 44.3883 38.9442C46.5133 37.2775 48.1591 35.09 49.3258 32.3817C50.5341 29.6317 51.1383 26.4858 51.1383 22.9442C51.1383 17.2358 49.7008 12.715 46.8258 9.38165C43.9508 6.04832 39.4508 4.38165 33.3258 4.38165C28.8258 4.38165 24.8675 4.65249 21.4508 5.19415C21.7008 6.44415 21.8258 7.75665 21.8258 9.13165Z" fill="black"/>
</svg>
