<svg width="90" height="116" viewBox="0 0 90 116" fill="none" xmlns="http://www.w3.org/2000/svg">
<mask id="path-1-outside-1_0_1" maskUnits="userSpaceOnUse" x="-2.89363" y="-2.44678" width="96" height="122" fill="black">
<rect fill="white" x="-2.89363" y="-2.44678" width="96" height="122"/>
<path d="M25.7994 106.953C25.7994 112.853 20.0494 115.803 8.54943 115.803C6.04943 115.803 4.54943 114.553 4.04943 112.053C3.64943 109.453 3.44943 105.853 3.44943 101.253C3.44943 91.5532 5.39943 79.5532 9.29943 65.2532C15.7994 41.6532 22.7494 27.7532 30.1494 23.5532C31.1494 22.9532 32.2494 22.6532 33.4494 22.6532C34.6494 22.6532 35.2494 24.6032 35.2494 28.5032C35.2494 32.4032 35.0494 35.8532 34.6494 38.8532C33.8494 44.8532 32.3994 52.6032 30.2994 62.1032C28.2994 71.6032 27.2994 77.2032 27.2994 78.9032L25.7994 106.953ZM35.9994 66.6032C35.9994 65.3032 36.6994 64.4532 38.0994 64.0532C39.5994 63.6532 41.4494 63.3032 43.6494 63.0032C45.8494 62.6032 48.2494 62.0532 50.8494 61.3532C53.4494 60.6532 55.8494 59.3532 58.0494 57.4532C63.1494 53.0532 65.6994 45.7032 65.6994 35.4032C65.6994 28.8032 63.4494 23.7532 58.9494 20.2532C54.5494 16.7532 48.1494 15.0032 39.7494 15.0032C31.4494 15.0032 23.6494 16.7532 16.3494 20.2532C13.6494 21.5532 11.1994 22.7532 8.99943 23.8532C6.89943 24.9532 4.94942 25.5032 3.14942 25.5032C1.34943 25.5032 0.449425 24.9532 0.449425 23.8532C0.449425 22.1532 2.09943 19.3532 5.39943 15.4532C8.69943 11.8532 13.8994 8.50322 20.9994 5.40322C28.1994 2.30322 35.7494 0.753218 43.6494 0.753218C58.5494 0.653219 70.1494 4.15322 78.4494 11.2532C85.6494 17.4532 89.2494 25.5032 89.2494 35.4032C89.2494 45.2032 85.6994 54.0032 78.5994 61.8032C71.4994 69.5032 62.5994 73.3532 51.8994 73.3532C41.2994 73.3532 35.9994 71.1032 35.9994 66.6032Z"/>
</mask>
<path d="M25.7994 106.953C25.7994 112.853 20.0494 115.803 8.54943 115.803C6.04943 115.803 4.54943 114.553 4.04943 112.053C3.64943 109.453 3.44943 105.853 3.44943 101.253C3.44943 91.5532 5.39943 79.5532 9.29943 65.2532C15.7994 41.6532 22.7494 27.7532 30.1494 23.5532C31.1494 22.9532 32.2494 22.6532 33.4494 22.6532C34.6494 22.6532 35.2494 24.6032 35.2494 28.5032C35.2494 32.4032 35.0494 35.8532 34.6494 38.8532C33.8494 44.8532 32.3994 52.6032 30.2994 62.1032C28.2994 71.6032 27.2994 77.2032 27.2994 78.9032L25.7994 106.953ZM35.9994 66.6032C35.9994 65.3032 36.6994 64.4532 38.0994 64.0532C39.5994 63.6532 41.4494 63.3032 43.6494 63.0032C45.8494 62.6032 48.2494 62.0532 50.8494 61.3532C53.4494 60.6532 55.8494 59.3532 58.0494 57.4532C63.1494 53.0532 65.6994 45.7032 65.6994 35.4032C65.6994 28.8032 63.4494 23.7532 58.9494 20.2532C54.5494 16.7532 48.1494 15.0032 39.7494 15.0032C31.4494 15.0032 23.6494 16.7532 16.3494 20.2532C13.6494 21.5532 11.1994 22.7532 8.99943 23.8532C6.89943 24.9532 4.94942 25.5032 3.14942 25.5032C1.34943 25.5032 0.449425 24.9532 0.449425 23.8532C0.449425 22.1532 2.09943 19.3532 5.39943 15.4532C8.69943 11.8532 13.8994 8.50322 20.9994 5.40322C28.1994 2.30322 35.7494 0.753218 43.6494 0.753218C58.5494 0.653219 70.1494 4.15322 78.4494 11.2532C85.6494 17.4532 89.2494 25.5032 89.2494 35.4032C89.2494 45.2032 85.6994 54.0032 78.5994 61.8032C71.4994 69.5032 62.5994 73.3532 51.8994 73.3532C41.2994 73.3532 35.9994 71.1032 35.9994 66.6032Z" fill="black"/>
<path d="M25.7994 106.953L22.8037 106.793L22.7994 106.873V106.953H25.7994ZM4.04943 112.053L1.08431 112.509L1.09452 112.576L1.10768 112.642L4.04943 112.053ZM9.29943 65.2532L6.40711 64.4566L6.40513 64.4639L9.29943 65.2532ZM30.1494 23.5532L31.6302 26.1623L31.6618 26.1444L31.6929 26.1257L30.1494 23.5532ZM34.6494 38.8532L31.6757 38.4567L31.6757 38.4567L34.6494 38.8532ZM30.2994 62.1032L27.3701 61.4557L27.3669 61.4704L27.3638 61.4852L30.2994 62.1032ZM27.2994 78.9032L30.2951 79.0634L30.2994 78.9834V78.9032H27.2994ZM38.0994 64.0532L37.3264 61.1545L37.3008 61.1614L37.2753 61.1686L38.0994 64.0532ZM43.6494 63.0032L44.0548 65.9757L44.1207 65.9667L44.1861 65.9548L43.6494 63.0032ZM50.8494 61.3532L51.6293 64.2501L51.6293 64.2501L50.8494 61.3532ZM58.0494 57.4532L56.0897 55.1818L56.0886 55.1828L58.0494 57.4532ZM58.9494 20.2532L57.0819 22.601L57.0947 22.6112L57.1076 22.6213L58.9494 20.2532ZM16.3494 20.2532L15.0524 17.5481L15.048 17.5502L16.3494 20.2532ZM8.99943 23.8532L7.65779 21.1699L7.63247 21.1826L7.6074 21.1957L8.99943 23.8532ZM5.39943 15.4532L3.18796 13.426L3.14773 13.4699L3.10927 13.5154L5.39943 15.4532ZM20.9994 5.40322L19.8131 2.64777L19.806 2.6508L19.799 2.65386L20.9994 5.40322ZM43.6494 0.753218V3.75322H43.6595L43.6696 3.75315L43.6494 0.753218ZM78.4494 11.2532L80.407 8.9799L80.3995 8.97351L78.4494 11.2532ZM78.5994 61.8032L80.8049 63.8369L80.8115 63.8298L80.818 63.8227L78.5994 61.8032ZM22.7994 106.953C22.7994 107.919 22.5718 108.627 22.2056 109.191C21.8297 109.769 21.1932 110.37 20.1175 110.922C17.879 112.07 14.1402 112.803 8.54943 112.803V118.803C14.4586 118.803 19.3448 118.062 22.8563 116.26C24.6556 115.337 26.1754 114.093 27.237 112.46C28.3083 110.811 28.7994 108.938 28.7994 106.953H22.7994ZM8.54943 112.803C7.80043 112.803 7.54443 112.623 7.46998 112.561C7.38866 112.493 7.14825 112.25 6.99117 111.465L1.10768 112.642C1.4506 114.356 2.21019 115.988 3.62887 117.17C5.05442 118.358 6.79842 118.803 8.54943 118.803V112.803ZM7.01454 111.597C6.64874 109.219 6.44943 105.795 6.44943 101.253H0.449426C0.449426 105.911 0.650114 109.687 1.08431 112.509L7.01454 111.597ZM6.44943 101.253C6.44943 91.9209 8.33108 80.2056 12.1937 66.0426L6.40513 64.4639C2.46777 78.9009 0.449426 91.1855 0.449426 101.253H6.44943ZM12.1917 66.0498C15.4158 54.3438 18.7173 45.1757 22.0702 38.4699C25.4689 31.6724 28.7232 27.8122 31.6302 26.1623L28.6686 20.9442C24.1756 23.4942 20.2549 28.684 16.7036 35.7866C13.1066 42.9807 9.68302 52.5626 6.40712 64.4566L12.1917 66.0498ZM31.6929 26.1257C32.2127 25.8138 32.7766 25.6532 33.4494 25.6532V19.6532C31.7222 19.6532 30.0862 20.0926 28.6059 20.9807L31.6929 26.1257ZM33.4494 25.6532C32.8186 25.6532 32.3087 25.3529 32.0325 25.0537C31.8335 24.8381 31.8499 24.7309 31.9321 24.998C32.097 25.5338 32.2494 26.6323 32.2494 28.5032H38.2494C38.2494 26.4741 38.1019 24.6477 37.6668 23.2335C37.2899 22.0086 36.1816 19.6532 33.4494 19.6532V25.6532ZM32.2494 28.5032C32.2494 32.3063 32.0541 35.6193 31.6757 38.4567L37.6231 39.2497C38.0448 36.0871 38.2494 32.5002 38.2494 28.5032H32.2494ZM31.6757 38.4567C30.8916 44.3377 29.4613 51.9955 27.3701 61.4557L33.2287 62.7507C35.3375 53.211 36.8072 45.3687 37.6231 39.2497L31.6757 38.4567ZM27.3638 61.4852C26.3612 66.2475 25.604 70.0568 25.0961 72.9008C24.6079 75.6352 24.2994 77.7363 24.2994 78.9032H30.2994C30.2994 78.3701 30.491 76.8213 31.0027 73.9556C31.4948 71.1997 32.2377 67.4589 33.2351 62.7213L27.3638 61.4852ZM24.3037 78.743L22.8037 106.793L28.7951 107.113L30.2951 79.0634L24.3037 78.743ZM38.9994 66.6032C38.9994 66.5473 39.0068 66.5691 38.9833 66.6414C38.9578 66.7197 38.9102 66.8129 38.8402 66.8978C38.6966 67.0722 38.6225 67.0238 38.9236 66.9378L37.2753 61.1686C36.1764 61.4826 35.0522 62.0592 34.2086 63.0836C33.3394 64.1391 32.9994 65.3888 32.9994 66.6032H38.9994ZM38.8724 66.9519C40.2124 66.5946 41.9308 66.2653 44.0548 65.9757L43.2441 60.0307C40.968 60.3411 38.9865 60.7118 37.3264 61.1545L38.8724 66.9519ZM44.1861 65.9548C46.4824 65.5373 48.9646 64.9675 51.6293 64.2501L50.0695 58.4564C47.5342 59.139 45.2165 59.6691 43.1128 60.0516L44.1861 65.9548ZM51.6293 64.2501C54.6991 63.4236 57.4964 61.8947 60.0103 59.7237L56.0886 55.1828C54.2024 56.8117 52.1998 57.8828 50.0695 58.4564L51.6293 64.2501ZM60.0091 59.7247C66.0542 54.5093 68.6994 46.1122 68.6994 35.4032H62.6994C62.6994 45.2943 60.2446 51.5971 56.0897 55.1818L60.0091 59.7247ZM68.6994 35.4032C68.6994 28.0423 66.143 22.0476 60.7912 17.8852L57.1076 22.6213C60.7559 25.4588 62.6994 29.5641 62.6994 35.4032H68.6994ZM60.817 17.9054C55.6799 13.8191 48.5065 12.0032 39.7494 12.0032V18.0032C47.7924 18.0032 53.4189 19.6873 57.0819 22.601L60.817 17.9054ZM39.7494 12.0032C31.0122 12.0032 22.7677 13.849 15.0524 17.5481L17.6464 22.9584C24.5312 19.6575 31.8867 18.0032 39.7494 18.0032V12.0032ZM15.048 17.5502C12.3373 18.8554 9.87363 20.062 7.65779 21.1699L10.3411 26.5365C12.5252 25.4444 14.9615 24.2511 17.6509 22.9562L15.048 17.5502ZM7.6074 21.1957C5.80574 22.1395 4.33543 22.5032 3.14942 22.5032V28.5032C5.56342 28.5032 7.99311 27.767 10.3915 26.5107L7.6074 21.1957ZM3.14942 22.5032C2.84312 22.5032 2.65815 22.479 2.56699 22.4605C2.47205 22.4411 2.54103 22.4406 2.68878 22.5309C2.85644 22.6333 3.08283 22.8286 3.25186 23.1385C3.41776 23.4427 3.44943 23.7122 3.44943 23.8532H-2.55057C-2.55057 25.3937 -1.82729 26.8027 -0.439929 27.6506C0.706975 28.3515 2.04149 28.5032 3.14942 28.5032V22.5032ZM3.44943 23.8532C3.44943 23.8927 3.44469 23.7613 3.57543 23.4047C3.70177 23.0602 3.92093 22.5963 4.27154 22.0013C4.97604 20.8058 6.09479 19.2758 7.68958 17.391L3.10927 13.5154C1.40406 15.5306 0.0478113 17.3507 -0.89769 18.9551C-1.78755 20.4652 -2.55057 22.1699 -2.55057 23.8532H3.44943ZM7.61089 17.4804C10.5105 14.3171 15.2836 11.1723 22.1998 8.15258L19.799 2.65386C12.5152 5.83409 6.88831 9.3893 3.18796 13.426L7.61089 17.4804ZM22.1858 8.15867C29.0081 5.22129 36.1541 3.75322 43.6494 3.75322V-2.24678C35.3447 -2.24678 27.3908 -0.614857 19.8131 2.64777L22.1858 8.15867ZM43.6696 3.75315C58.1114 3.65623 68.9199 7.0493 76.4993 13.5329L80.3995 8.97351C71.379 1.25714 58.9874 -2.34979 43.6293 -2.24671L43.6696 3.75315ZM76.4919 13.5265C82.999 19.1299 86.2494 26.3347 86.2494 35.4032H92.2494C92.2494 24.6717 88.2999 15.7766 80.407 8.97991L76.4919 13.5265ZM86.2494 35.4032C86.2494 44.3964 83.0199 52.4903 76.3809 59.7838L80.818 63.8227C88.379 55.5162 92.2494 46.01 92.2494 35.4032H86.2494ZM76.3939 59.7696C69.8757 66.8387 61.7821 70.3532 51.8994 70.3532V76.3532C63.4167 76.3532 73.1232 72.1678 80.8049 63.8369L76.3939 59.7696ZM51.8994 70.3532C46.7205 70.3532 43.2335 69.7901 41.1467 68.9043C40.1348 68.4746 39.6138 68.0361 39.3527 67.7037C39.1264 67.4154 38.9994 67.0915 38.9994 66.6032H32.9994C32.9994 68.3649 33.535 70.0098 34.6336 71.409C35.6976 72.7641 37.1641 73.7318 38.8021 74.4272C42.0154 75.7913 46.4783 76.3532 51.8994 76.3532V70.3532Z" fill="black" mask="url(#path-1-outside-1_0_1)"/>
</svg>
